<?xml version="1.0" encoding="UTF-8"?><svg id="Camada_2" xmlns="http://www.w3.org/2000/svg" xmlns:xlink="http://www.w3.org/1999/xlink" viewBox="0 0 472 423"><defs><radialGradient id="Gradiente_sem_nome" cx="-277.8" cy="463.56" fx="-277.8" fy="463.56" r="1" gradientTransform="translate(-95998.28 51894.29) rotate(90) scale(186.05 -207.6)" gradientUnits="userSpaceOnUse"><stop offset="0" stop-color="#f33b00" stop-opacity="0"/><stop offset=".24" stop-color="#f33b00" stop-opacity=".3"/><stop offset=".43" stop-color="#f33b00"/><stop offset=".79" stop-color="#f33b00" stop-opacity=".17"/><stop offset="1" stop-color="#f33b00" stop-opacity="0"/></radialGradient></defs><g id="Camada_1-2"><path d="M402.17,360.42c-44.39,39.78-103.4,61.68-166.17,61.68s-121.79-21.91-166.17-61.68S1,267.76,1,211.5,25.44,102.36,69.83,62.58C114.21,22.8,173.23,.89,236,.89s121.79,21.91,166.17,61.68c44.39,39.78,68.83,92.67,68.83,148.92s-24.44,109.14-68.83,148.92m.7-298.48C358.3,22,299.04,0,236,0S113.7,22,69.12,61.95C24.55,101.89,0,155.01,0,211.5s24.55,109.61,69.12,149.55c44.57,39.95,103.84,61.95,166.88,61.95s122.3-22,166.88-61.95,69.12-93.06,69.12-149.55-24.55-109.61-69.12-149.55m-3.95,295.29c-43.44,39-101.22,60.51-162.71,60.56h-.22c-61.4,0-119.15-21.41-162.62-60.29C29.86,318.58,5.86,266.8,5.8,211.69c-.06-55.1,23.83-106.93,67.27-145.93C116.51,26.76,174.3,5.25,235.79,5.2h.22c61.4,0,119.15,21.41,162.62,60.29,43.52,38.93,67.52,90.71,67.58,145.82,.06,55.11-23.83,106.93-67.27,145.93m.4-292.38C355.67,25.81,297.68,4.31,236.01,4.31h-.22c-61.75,.05-119.79,21.65-163.42,60.82C28.74,104.3,4.75,156.35,4.81,211.69c.06,55.34,24.16,107.35,67.87,146.45,43.66,39.05,101.65,60.55,163.32,60.55h.22c61.75-.05,119.79-21.65,163.42-60.82,43.63-39.17,67.62-91.22,67.56-146.56-.06-55.34-24.16-107.35-67.87-146.45m-3.65,289.2c-42.49,38.23-99.05,59.33-159.25,59.43h-.44c-60.04,0-116.51-20.91-159.06-58.89C34.27,316.52,10.72,265.83,10.61,211.88c-.11-53.96,23.22-104.72,65.71-142.94C118.81,30.72,175.37,9.61,235.57,9.51h.44c60.04,0,116.51,20.91,159.06,58.89,42.65,38.08,66.2,88.76,66.32,142.72,.11,53.96-23.22,104.72-65.71,142.94m.1-286.29C353.04,29.61,296.32,8.61,236.01,8.61h-.44c-60.47,.1-117.28,21.3-159.96,59.7C32.94,106.7,9.5,157.69,9.61,211.88c.12,54.19,23.77,105.1,66.61,143.35,42.74,38.16,99.46,59.15,159.77,59.15h.44c60.47-.1,117.28-21.3,159.95-59.7,42.68-38.39,66.12-89.38,66.01-143.57-.11-54.19-23.77-105.1-66.61-143.35m-3.35,283.11c-41.54,37.45-96.87,58.15-155.79,58.31h-.66c-58.67,0-113.88-20.41-155.51-57.5C38.69,314.46,15.59,264.88,15.41,212.07c-.17-52.8,22.61-102.51,64.16-139.95C121.11,34.68,176.44,13.97,235.36,13.81h.66c58.67,0,113.88,20.41,155.51,57.5,41.78,37.23,64.89,86.81,65.06,139.62,.17,52.8-22.61,102.51-64.15,139.95m-.2-280.2c-41.82-37.26-97.27-57.76-156.21-57.76h-.66c-59.19,.15-114.76,20.95-156.49,58.57C37.13,109.11,14.25,159.03,14.42,212.08c.17,53.04,23.38,102.85,65.35,140.25,41.82,37.26,97.27,57.76,156.21,57.76h.66c59.19-.15,114.76-20.95,156.49-58.57,41.73-37.61,64.62-87.54,64.45-140.59-.17-53.04-23.38-102.85-65.35-140.25m-3.05,277.02c-40.59,36.67-94.69,56.98-152.33,57.18h-.88c-57.31,0-111.25-19.91-151.95-56.1-40.92-36.38-63.58-84.86-63.8-136.52-.23-51.65,22-100.29,62.6-136.96C123.41,38.63,177.51,18.33,235.15,18.12h.88c57.31,0,111.25,19.9,151.95,56.1,40.92,36.38,63.58,84.86,63.8,136.52,.23,51.65-22,100.29-62.6,136.96m-.5-274.11c-41.1-36.55-95.61-56.53-153.53-56.36-57.9,.21-112.25,20.61-153.03,57.44C41.33,111.51,19,160.38,19.22,212.27s22.99,100.6,64.1,137.15c40.9,36.36,95.08,56.36,152.65,56.36h.88c57.9-.21,112.25-20.61,153.03-57.44,40.78-36.84,63.12-85.7,62.89-137.6-.23-51.89-22.99-100.6-64.1-137.15m-2.74,270.93c-39.65,35.89-92.51,55.8-148.87,56.05-.36,0-.72,0-1.08,0-115.84,0-210.37-84.19-210.96-188.12C24.44,108.2,118.6,22.95,234.94,22.43c.36,0,.72,0,1.08,0,115.84,0,210.37,84.19,210.96,188.12,.28,50.5-21.39,98.08-61.04,133.97m-.8-268.02c-39.98-35.47-92.89-54.96-149.1-54.96h-1.1C118.05,22.06,23.44,107.71,24.03,212.46c.59,104.43,95.56,189.01,211.95,189.01,.36,0,.73,0,1.09,0,116.88-.53,211.49-86.18,210.9-190.92-.29-50.74-22.6-98.35-62.84-134.04m-2.44,264.84c-38.7,35.11-90.34,54.62-145.41,54.93-.44,0-.86,0-1.3,0-113.08,0-205.45-82.14-206.15-183.62C29.13,110.77,121.04,27.37,234.72,26.74c.44,0,.86,0,1.3,0,113.09,0,205.45,82.14,206.15,183.62,.34,49.35-20.78,95.87-59.48,130.98M236.02,25.84c-.43,0-.87,0-1.3,0C120.49,26.48,28.13,110.28,28.84,212.65c.71,101.99,93.5,184.51,207.14,184.51,.43,0,.87,0,1.3,0,55.33-.31,107.23-19.91,146.11-55.19,38.89-35.28,60.11-82.03,59.77-131.62-.7-101.98-93.5-184.51-207.14-184.51m1.47,366.12c-.51,0-1.01,0-1.51,0-110.34,0-200.52-80.08-201.34-179.13-.4-48.2,20.17-93.66,57.92-127.99,37.75-34.34,88.16-53.44,141.95-53.8,.51,0,1.01,0,1.51,0,110.34,0,200.52,80.08,201.34,179.13,.82,99.5-88.84,181.05-199.87,181.79m-2.99-361.81c-54.05,.36-104.71,19.56-142.65,54.06-37.94,34.51-58.61,80.19-58.21,128.63,.4,48.44,21.83,93.84,60.33,127.84,38.14,33.68,88.51,52.17,141.99,52.17,.51,0,1.03,0,1.54,0,111.58-.74,201.68-82.7,200.86-182.69-.83-100-92.25-180.71-203.85-180.01m3.2,357.5c-.59,0-1.17,0-1.75,0-51.85,0-100.7-17.91-137.73-50.52-37.45-32.98-58.32-77.06-58.78-124.11-.94-97.13,86.47-176.83,194.85-177.68,.58,0,1.15,0,1.73,0,107.59,0,195.59,78.02,196.53,174.63,.94,97.13-86.47,176.84-194.85,177.68m-1.68-353.2c-.58,0-1.16,0-1.74,0-108.93,.85-196.78,80.96-195.84,178.58,.46,47.29,21.44,91.59,59.07,124.74,37.22,32.78,86.32,50.78,138.43,50.78,.59,0,1.17,0,1.76,0,108.93-.85,196.78-80.96,195.84-178.58-.94-97.1-89.38-175.51-197.52-175.51m136.91,297.34c-35.85,32.78-83.81,51.09-135.02,51.55-.65,0-1.3,0-1.95,0-104.85,0-190.67-75.96-191.72-170.13-1.06-94.75,84.1-172.61,189.83-173.56,.65,0,1.3,0,1.95,0,104.85,0,190.67,75.96,191.72,170.13,.51,45.9-18.95,89.23-54.81,122.01M234.07,38.76c-106.28,.95-191.88,79.22-190.82,174.46,.51,46.14,21.05,89.34,57.82,121.64,36.3,31.89,84.12,49.38,134.87,49.38,.66,0,1.32,0,1.98,0,51.48-.46,99.69-18.86,135.73-51.81s55.61-76.51,55.09-122.65c-1.06-95.25-88.36-171.93-194.67-171.01m4.06,340.27c-.72,0-1.44,.01-2.16,.01-102.1,0-185.75-73.91-186.91-165.64-1.17-92.38,81.73-168.39,184.81-169.44,.73,0,1.46-.01,2.19-.01,49.12,0,95.43,16.91,130.62,47.73,35.71,31.28,55.69,73.16,56.26,117.91,1.17,92.38-81.73,168.39-184.81,169.44M367.38,91.05c-35.38-30.99-81.93-47.99-131.32-47.99-.73,0-1.47,0-2.2,.01-103.63,1.06-186.98,77.47-185.8,170.35,1.17,92.23,85.26,166.52,187.91,166.52,.72,0,1.45,0,2.17-.01,103.63-1.06,186.98-77.48,185.8-170.35-.57-44.99-20.66-87.08-56.56-118.53m-.93,234.39c-33.96,31.23-79.45,48.73-128.1,49.29-.8,.01-1.6,.01-2.41,.01-47.76,0-92.8-16.41-127.07-46.34-34.84-30.43-54.38-71.2-55-114.8-.62-43.6,17.73-84.81,51.69-116.04,33.96-31.23,79.45-48.73,128.1-49.29,.8,0,1.6-.01,2.41-.01,47.76,0,92.8,16.41,127.07,46.34,34.84,30.43,54.38,71.21,55,114.8,.63,43.6-17.73,84.81-51.69,116.04m52.69-116.04c-.63-43.84-20.27-84.83-55.3-115.43s-81.24-47.14-130.18-46.58c-48.92,.56-94.66,18.17-128.8,49.56-34.14,31.4-52.6,72.83-51.97,116.67,.63,43.84,20.27,84.83,55.3,115.43,34.46,30.1,79.74,46.59,127.77,46.59,.8,0,1.61,0,2.42-.01,48.92-.56,94.66-18.16,128.8-49.56,34.14-31.4,52.6-72.83,51.97-116.67m-180.58,161.03c-.87,.01-1.73,.02-2.59,.02-96.6,0-175.9-69.8-177.29-156.65-.68-42.45,17.12-82.6,50.13-113.04,33.01-30.45,77.28-47.55,124.64-48.17,.87-.01,1.73-.02,2.59-.02,96.6,0,175.9,69.8,177.29,156.65,1.41,87.63-76.99,159.95-174.77,161.21m-2.52-318.75c-.87,0-1.74,0-2.61,.02-47.63,.62-92.15,17.82-125.34,48.44-33.2,30.62-51.1,70.99-50.41,113.68,1.4,87.34,81.13,157.53,178.29,157.53,.87,0,1.74,0,2.61-.02,98.33-1.27,177.17-73.99,175.76-162.12-1.4-87.34-81.14-157.53-178.29-157.53m123.91,267.4c-32.06,29.67-75.1,46.38-121.18,47.04-.95,.01-1.9,.02-2.84,.02-45.03,0-87.54-15.41-119.96-43.55-33.11-28.73-51.75-67.3-52.49-108.6-.74-41.3,16.51-80.38,48.57-110.06,32.06-29.67,75.1-46.38,121.18-47.04,.94-.01,1.87-.02,2.81-.02,93.86,0,170.97,67.74,172.48,152.15,.74,41.3-16.51,80.38-48.57,110.06M233.22,55.99c-46.35,.67-89.63,17.47-121.88,47.31-32.25,29.84-49.6,69.15-48.85,110.69,.74,41.54,19.49,80.33,52.79,109.23,32.62,28.31,75.36,43.8,120.65,43.8,.95,0,1.91,0,2.86-.02,46.35-.67,89.64-17.47,121.88-47.31,32.25-29.84,49.6-69.15,48.85-110.69-1.54-85.75-80.66-154.39-176.3-153.01m123.49,259.9c-31.11,28.89-72.92,45.2-117.72,45.91-1.01,.02-2.02,.02-3.02,.02-91.12,0-166.05-65.69-167.67-147.66-1.64-82.88,72.26-151.5,164.74-152.98,1.01-.02,2.02-.02,3.02-.03,91.12,0,166.05,65.69,167.67,147.66,.8,40.15-15.9,78.17-47.02,107.07M233,60.3c-93.03,1.48-167.37,70.51-165.72,153.88,1.64,82.47,77,148.54,168.67,148.54,1.01,0,2.03,0,3.04-.02,45.07-.72,87.12-17.12,118.42-46.18,31.3-29.06,48.1-67.31,47.29-107.7-1.65-83.37-78.7-150-171.71-148.51m120.45,252.41c-30.17,28.12-70.75,44.02-114.26,44.79-43.56,.76-84.76-13.7-116.13-40.74-31.37-27.04-49.12-63.4-49.97-102.4-.85-39,15.29-75.96,45.46-104.07,30.17-28.12,70.75-44.02,114.26-44.79,1.09-.02,2.19-.03,3.28-.03,42.31,0,82.27,14.41,112.85,40.77,31.37,27.04,49.12,63.4,49.97,102.4,.85,39-15.29,75.96-45.46,104.08M232.79,64.61c-43.78,.77-84.61,16.77-114.96,45.06s-46.6,65.47-45.74,104.71c.86,39.24,18.72,75.82,50.28,103.02,30.77,26.52,70.98,41.02,113.54,41.02,1.1,0,2.2-.01,3.3-.03,43.78-.77,84.61-16.77,114.96-45.06,30.35-28.29,46.6-65.48,45.74-104.71-1.77-81-76.75-145.62-167.12-144.01m117.42,244.93c-29.22,27.34-68.57,42.84-110.8,43.66-42.24,.83-82.29-13.16-112.79-39.34-30.5-26.18-47.81-61.45-48.72-99.3s14.68-73.75,43.9-101.08c29.22-27.34,68.57-42.84,110.8-43.66,1.17-.02,2.33-.03,3.49-.03,40.94,0,79.64,13.92,109.3,39.38,30.5,26.19,47.8,61.45,48.71,99.3,.91,37.85-14.68,73.75-43.9,101.08m-4.13-201.03c-30.7-26.35-70.99-40.41-113.5-39.59-42.5,.82-82.1,16.42-111.5,43.93-29.4,27.51-45.09,63.64-44.17,101.72,.92,38.09,18.33,73.57,49.02,99.92,29.85,25.62,68.79,39.62,109.99,39.62,1.17,0,2.35-.01,3.52-.03,42.5-.82,82.1-16.42,111.5-43.93,29.4-27.51,45.09-63.64,44.18-101.72-.92-38.09-18.33-73.57-49.02-99.92m.88,197.85c-28.27,26.56-66.39,41.67-107.34,42.53-1.23,.03-2.45,.04-3.67,.04-82.89,0-151.28-59.53-153.25-134.18-1.99-75.75,65.15-138.84,149.68-140.63,84.5-1.8,154.92,58.39,156.92,134.14,.97,36.7-14.07,71.53-42.34,98.09M232.36,73.22c-85.08,1.8-152.66,65.29-150.65,141.54,1.98,75.14,70.81,135.05,154.24,135.05,1.23,0,2.46-.01,3.69-.04,41.21-.87,79.58-16.07,108.04-42.81,28.45-26.73,43.59-61.8,42.62-98.73-2.01-76.25-72.87-136.77-157.94-135.01m111.35,229.95c-27.32,25.78-64.21,40.49-103.88,41.4-39.68,.92-77.35-12.07-106.12-36.55-28.77-24.49-45.18-57.55-46.2-93.09-1.02-35.55,13.46-69.32,40.78-95.11,27.32-25.78,64.21-40.49,103.88-41.4,1.3-.03,2.59-.04,3.88-.04,80.14,0,146.36,57.47,148.44,129.69,1.02,35.55-13.46,69.32-40.79,95.11M232.15,77.53c-39.93,.92-77.07,15.73-104.58,41.68s-42.09,59.96-41.06,95.74c1.03,35.78,17.55,69.07,46.51,93.72,28.01,23.84,64.4,36.84,102.88,36.84,1.31,0,2.64-.02,3.96-.05,39.93-.92,77.07-15.73,104.58-41.68,27.51-25.95,42.09-59.96,41.06-95.74-2.13-73.87-70.92-132.43-153.35-130.51m108.32,222.46c-26.38,25.01-62.04,39.31-100.42,40.28-38.39,.96-74.88-11.52-102.79-35.15-27.9-23.64-43.86-55.6-44.94-89.99-2.23-71,60.42-130.4,139.64-132.39,1.37-.03,2.73-.05,4.1-.05,77.4,0,141.44,55.42,143.63,125.2,1.08,34.4-12.85,67.11-39.23,92.11M231.93,81.84c-79.78,2.01-142.86,61.81-140.61,133.31,2.21,70.26,66.69,126.07,144.63,126.07,1.37,0,2.75-.02,4.13-.05,38.65-.98,74.56-15.38,101.11-40.56,26.56-25.18,40.58-58.12,39.5-92.75-2.25-71.5-69.01-128.01-148.75-126.01m105.28,214.98c-25.43,24.23-59.86,38.13-96.96,39.15-37.08,1.02-72.41-10.97-99.45-33.76-27.03-22.79-42.55-53.65-43.68-86.89-1.14-33.24,12.24-64.9,37.67-89.12s59.86-38.13,96.96-39.15c76.54-2.1,140.79,52.02,143.13,120.65,1.14,33.25-12.24,64.9-37.67,89.13M231.71,86.14c-37.36,1.03-72.04,15.03-97.65,39.43-25.61,24.4-39.08,56.28-37.94,89.76,1.15,33.48,16.77,64.56,44,87.51,26.16,22.05,60.02,34.06,95.77,34.06,1.46,0,2.93-.02,4.4-.06,37.36-1.02,72.04-15.03,97.65-39.43,25.61-24.4,39.08-56.28,37.94-89.76-2.36-69.12-67.01-123.62-144.16-121.51m102.25,207.49c-24.48,23.45-57.68,36.96-93.5,38.02-35.81,1.08-69.95-10.42-96.11-32.36-26.17-21.94-41.24-51.7-42.43-83.79-1.19-32.09,11.63-62.68,36.11-86.13,24.48-23.45,57.68-36.95,93.5-38.02,1.53-.05,3.06-.07,4.58-.07,34.13,0,66.49,11.43,91.53,32.43,26.17,21.94,41.23,51.7,42.43,83.79,1.19,32.09-11.63,62.68-36.11,86.14M231.5,90.45c-36.08,1.08-69.53,14.68-94.19,38.31-24.66,23.62-37.58,54.44-36.38,86.77,2.43,65.38,62.55,117.08,135.01,117.08,1.51,0,3.04-.02,4.56-.07,74.48-2.22,133.05-58.33,130.57-125.08-2.48-66.74-65.08-119.26-139.57-117.01m99.21,200c-23.53,22.67-55.51,35.78-90.04,36.9-1.59,.05-3.16,.08-4.74,.08-69.18,0-126.68-49.28-129.21-111.73-2.58-63.88,53.31-117.73,124.59-120.04,71.27-2.32,131.37,47.78,133.95,111.66,1.25,30.94-11.02,60.47-34.55,83.14M236.06,94.68c-1.58,0-3.18,.02-4.78,.08-71.83,2.33-128.15,56.6-125.55,120.97,2.54,62.94,60.49,112.59,130.2,112.59,1.58,0,3.18-.03,4.78-.08,34.79-1.13,67.02-14.33,90.73-37.18,23.71-22.85,36.08-52.6,34.82-83.78-2.54-62.94-60.48-112.59-130.2-112.59m91.41,192.59c-22.58,21.9-53.33,34.6-86.58,35.77-1.68,.06-3.34,.09-5.01,.09-31.41,0-61.23-10.44-84.43-29.66-24.43-20.24-38.61-47.79-39.91-77.59-1.31-29.79,10.41-58.26,33-80.16,22.58-21.9,53.33-34.6,86.58-35.77,1.66-.06,3.31-.09,4.95-.09,66.44,0,121.77,47.23,124.4,107.25,1.31,29.79-10.41,58.26-33,80.16M231.07,99.07c-33.51,1.18-64.5,13.98-87.27,36.06-22.76,22.07-34.58,50.76-33.26,80.8,1.32,30.03,15.6,57.81,40.23,78.21,23.39,19.37,53.44,29.9,85.1,29.9,1.68,0,3.37-.03,5.05-.09,33.51-1.18,64.5-13.98,87.27-36.06s34.58-50.76,33.26-80.8c-2.72-62-61.18-110.45-130.39-108.02m10.03,219.67c-1.72,.07-3.44,.1-5.17,.1-63.71,0-116.85-45.18-119.59-102.76-2.81-59.13,48.58-109.29,114.55-111.81,65.98-2.51,121.95,43.53,124.76,102.66,2.81,59.13-48.58,109.29-114.55,111.81m-10.25-215.36c-66.53,2.54-118.34,53.12-115.51,112.74,2.76,58.06,56.35,103.61,120.59,103.61,1.73,0,3.47-.03,5.21-.1,66.53-2.54,118.34-53.12,115.51-112.74-2.84-59.62-59.27-106.06-125.8-103.51m90.11,177.54c-20.69,20.34-48.98,32.24-79.66,33.51-30.68,1.26-60.07-8.24-82.77-26.78-22.69-18.54-35.98-43.89-37.4-71.39-2.93-56.75,46.21-105.06,109.54-107.69,63.32-2.62,117.23,41.41,120.16,98.16,1.42,27.49-9.19,53.84-29.88,74.18M230.64,107.68c-63.88,2.65-113.44,51.38-110.48,108.62,1.43,27.73,14.83,53.3,37.72,72,21.54,17.59,49.05,27.12,78,27.12,1.82,0,3.65-.04,5.49-.11,30.94-1.28,59.48-13.29,80.35-33.8,20.87-20.52,31.57-47.09,30.14-74.82-2.95-57.25-57.31-101.66-121.21-99.01m10.89,202.44c-1.87,.08-3.73,.13-5.59,.13-58.24,0-107.03-41.1-109.98-93.79-3.05-54.38,43.84-100.84,104.52-103.57,60.69-2.74,112.52,39.29,115.57,93.67,3.05,54.38-43.84,100.84-104.52,103.57m-11.1-198.13c-61.23,2.75-108.54,49.64-105.46,104.51,2.98,53.18,52.21,94.64,110.98,94.64,1.87,0,3.75-.04,5.64-.13,61.23-2.76,108.54-49.64,105.46-104.51-3.08-54.87-55.37-97.28-116.62-94.51m84.05,162.57c-18.79,18.79-44.62,29.89-72.74,31.26-28.1,1.37-55.13-7.15-76.1-23.99-20.96-16.84-33.35-39.99-34.88-65.18-3.16-52,41.47-96.62,99.5-99.46,58.01-2.82,107.81,37.17,110.98,89.17,1.53,25.19-7.97,49.41-26.77,68.19M230.21,116.3c-58.58,2.86-103.63,47.9-100.44,100.39,1.55,25.43,14.05,48.8,35.21,65.8,19.68,15.82,44.66,24.36,70.89,24.36,1.97,0,3.94-.05,5.92-.14,28.38-1.39,54.45-12.59,73.42-31.55,18.97-18.96,28.57-43.41,27.02-68.84-3.19-52.49-53.44-92.89-112.02-90.01m11.74,185.21c-2.02,.11-4.02,.16-6.01,.16-52.78,0-97.21-37.01-100.37-84.83-1.59-24.04,7.37-47.2,25.21-65.21,17.84-18.01,42.45-28.71,69.27-30.13,55.38-2.93,103.1,35.05,106.38,84.68,3.28,49.63-39.11,92.4-94.48,95.34m-11.96-180.9c-27.09,1.44-51.94,12.25-69.96,30.43-18.02,18.19-27.06,41.57-25.46,65.85,3.19,48.3,48.06,85.67,101.36,85.67,2.01,0,4.04-.05,6.07-.16,55.93-2.97,98.73-46.16,95.42-96.28-3.31-50.12-51.53-88.48-107.43-85.51m77.98,147.59c-16.9,17.23-40.27,27.53-65.81,29-2.09,.12-4.16,.18-6.22,.18-50.05,0-92.3-34.98-95.56-80.36-3.4-47.25,36.74-88.18,89.47-91.22,52.74-3.05,98.39,32.93,101.79,80.18,1.65,22.89-6.76,44.99-23.65,62.21M229.78,124.91c-53.28,3.08-93.83,44.42-90.4,92.17,3.3,45.86,45.98,81.19,96.56,81.19,2.08,0,4.18-.06,6.29-.18,25.81-1.49,49.43-11.9,66.5-29.3,17.08-17.41,25.56-39.73,23.9-62.86-3.43-47.74-49.53-84.09-102.84-81.01m74.95,140.11c-15.95,16.45-38.1,26.35-62.35,27.88-50.08,3.16-93.68-30.8-97.19-75.68-3.51-44.88,34.37-83.95,84.45-87.1,2.16-.14,4.3-.2,6.43-.2,47.33,0,87.39,32.94,90.76,75.89,1.7,21.74-6.14,42.77-22.1,59.22m-75.16-135.8c-50.62,3.18-88.93,42.68-85.37,88.05,3.4,43.42,43.9,76.72,91.75,76.71,2.15,0,4.32-.07,6.5-.2,24.52-1.54,46.91-11.55,63.04-28.18,16.13-16.63,24.06-37.9,22.34-59.87-3.55-45.37-47.62-79.69-98.25-76.51m13.02,159.37c-47.45,3.26-88.96-28.68-92.6-71.19-1.76-20.59,5.54-40.56,20.54-56.24,15-15.67,35.92-25.17,58.89-26.75,47.43-3.26,88.97,28.68,92.6,71.19,3.63,42.51-32.01,79.73-79.43,82.98m-13.24-155.06c-23.24,1.59-44.4,11.2-59.57,27.06-15.18,15.85-22.55,36.06-20.78,56.88,3.5,40.98,41.82,72.24,86.95,72.24,2.22,0,4.47-.08,6.72-.23,47.98-3.29,84.02-40.95,80.35-83.94s-45.7-75.29-93.67-72.01m68.88,125.13c-14.06,14.9-33.74,23.99-55.43,25.62-21.68,1.62-42.79-4.42-59.41-17.01-16.62-12.6-26.77-30.24-28.59-49.68-1.81-19.44,4.93-38.35,18.99-53.24,14.06-14.9,33.74-23.99,55.43-25.62,21.68-1.62,42.79,4.42,59.41,17.01,16.62,12.6,26.77,30.24,28.59,49.68,1.81,19.44-4.93,38.35-18.99,53.24m-8.96-103.61c-16.82-12.75-38.18-18.87-60.14-17.22-21.96,1.64-41.88,10.85-56.11,25.93-14.23,15.08-21.05,34.22-19.22,53.9s12.11,37.54,28.94,50.29c15.03,11.39,33.67,17.48,53.12,17.48,2.33,0,4.67-.09,7.01-.26,21.96-1.64,41.88-10.85,56.11-25.93,14.23-15.08,21.05-34.22,19.22-53.89-1.84-19.68-12.11-37.54-28.94-50.29m5.71,100.43c-13.11,14.12-31.57,22.82-51.98,24.49-20.41,1.68-40.32-3.87-56.07-15.62-15.75-11.75-25.46-28.29-27.33-46.58-3.86-37.76,27.27-71.29,69.4-74.74,42.12-3.46,79.54,24.44,83.4,62.2,1.87,18.29-4.32,36.14-17.43,50.25m-66.07-113.34c-42.67,3.51-74.21,37.47-70.3,75.71,1.89,18.53,11.73,35.28,27.68,47.18,14.09,10.51,31.47,16.12,49.57,16.12,2.4,0,4.81-.1,7.23-.3,20.67-1.7,39.37-10.51,52.65-24.81,13.28-14.3,19.55-32.38,17.66-50.91-3.91-38.24-41.8-66.5-84.49-63.01m62.82,110.16c-12.16,13.34-29.39,21.64-48.51,23.36-39.48,3.56-74.83-22.32-78.81-57.71-1.93-17.14,3.71-33.92,15.87-47.26,12.16-13.34,29.39-21.64,48.51-23.36,39.49-3.56,74.83,22.32,78.81,57.71,1.92,17.14-3.71,33.92-15.87,47.26m-63.03-105.86c-19.39,1.75-36.86,10.16-49.19,23.68-12.33,13.52-18.04,30.54-16.09,47.92,3.78,33.65,35.57,58.83,72.53,58.83,2.43,0,4.89-.11,7.36-.33,19.39-1.75,36.86-10.16,49.19-23.68,12.33-13.52,18.04-30.54,16.09-47.92-4.03-35.87-39.86-62.12-79.9-58.5m14.73,124.91c-36.82,3.67-70.12-20.2-74.21-53.21-4.09-33.01,22.55-62.84,59.37-66.5,2.48-.25,4.97-.37,7.47-.37,33.76,0,62.93,22.82,66.74,53.58,4.09,33.01-22.54,62.84-59.37,66.5m-14.95-120.6c-37.37,3.72-64.4,34-60.25,67.49,3.87,31.22,33.47,54.38,67.73,54.38,2.5,0,5.04-.12,7.58-.38,37.37-3.72,64.4-33.99,60.25-67.49-4.15-33.49-37.91-57.71-75.31-54m15.15,116.3c-2.55,.28-5.11,.42-7.67,.42-31.06,0-58.05-20.82-61.94-49.14-2.04-14.84,2.5-29.5,12.76-41.28,10.27-11.78,25.04-19.28,41.6-21.1,34.18-3.77,65.4,18.09,69.61,48.72,4.2,30.63-20.18,58.62-54.36,62.38m-15.37-111.99c-16.82,1.85-31.83,9.47-42.26,21.44-10.43,11.97-15.04,26.87-12.97,41.94,3.95,28.77,31.37,49.92,62.93,49.92,2.57,0,5.17-.14,7.79-.43,34.73-3.83,59.5-32.26,55.23-63.38-4.27-31.12-35.99-53.32-70.72-49.5m53.72,87.71c-9.32,11.01-22.87,18.1-38.14,19.97-15.28,1.87-30.45-1.69-42.73-10.05-12.28-8.35-20.19-20.49-22.29-34.18-2.09-13.69,1.89-27.29,11.21-38.29,9.32-11.01,22.87-18.1,38.14-19.97,2.64-.32,5.29-.49,7.95-.49,12.52,0,24.63,3.63,34.78,10.53,12.28,8.35,20.19,20.49,22.29,34.18,2.09,13.69-1.89,27.29-11.21,38.29m-10.47-73.18c-12.49-8.5-27.93-12.13-43.46-10.22-15.54,1.91-29.32,9.12-38.8,20.32-9.48,11.19-13.53,25.03-11.4,38.95,2.13,13.92,10.18,26.27,22.67,34.77,10.32,7.02,22.64,10.72,35.38,10.72,2.68,0,5.38-.16,8.09-.49,15.54-1.91,29.32-9.12,38.8-20.32,9.48-11.19,13.53-25.03,11.4-38.95-2.13-13.92-10.18-26.27-22.67-34.77m7.22,70.01c-8.38,10.23-20.69,16.92-34.68,18.84-13.99,1.92-27.98-1.15-39.39-8.65s-18.88-18.54-21.02-31.08c-2.15-12.54,1.28-25.07,9.66-35.3,8.37-10.23,20.69-16.92,34.68-18.84,2.67-.37,5.37-.55,8.07-.55,25.7,0,48.33,16.84,52.35,40.29,2.15,12.54-1.28,25.07-9.66,35.3m-50.91-75.92c-29.42,4.05-49.69,28.79-45.17,55.16,4.09,23.89,27.14,41.05,53.33,41.05,2.71,0,5.46-.18,8.22-.56,29.42-4.05,49.69-28.79,45.17-55.16-4.52-26.37-32.12-44.52-61.55-40.48m47.65,72.74c-7.43,9.45-18.52,15.74-31.22,17.71-12.71,1.97-25.51-.61-36.05-7.26-10.54-6.66-17.56-16.6-19.76-27.98-2.2-11.39,.68-22.86,8.11-32.31,7.43-9.45,18.52-15.74,31.22-17.71,2.73-.42,5.5-.64,8.26-.64,23.03,0,43.48,14.87,47.55,35.89,2.2,11.39-.68,22.86-8.11,32.31m-47.88-68.44c-12.97,2.01-24.29,8.43-31.87,18.07-7.58,9.64-10.52,21.35-8.27,32.97,2.25,11.62,9.41,21.77,20.17,28.56,8.4,5.31,18.21,8.07,28.28,8.07,2.82,0,5.68-.22,8.51-.66,12.97-2.01,24.29-8.43,31.87-18.07,7.58-9.64,10.52-21.35,8.27-32.97-4.64-23.99-30.19-40.13-56.96-35.98m16.85,81.84c-2.84,.5-5.67,.74-8.46,.74-20.39,0-38.66-12.92-42.75-31.5-4.65-21.13,10.74-41.72,34.32-45.9,23.59-4.17,46.55,9.63,51.21,30.76,4.65,21.13-10.74,41.72-34.32,45.89m-17.08-77.53c-24.12,4.27-39.87,25.33-35.11,46.94,4.19,19.01,22.88,32.22,43.73,32.22,2.85,0,5.75-.25,8.65-.76,24.12-4.27,39.87-25.33,35.11-46.94-4.76-21.62-28.26-35.73-52.38-31.46m41.59,57.78c-5.54,7.89-14.17,13.37-24.31,15.44-20.93,4.27-41.84-7.52-46.61-26.28-2.31-9.09-.53-18.44,5.01-26.33,5.54-7.89,14.17-13.37,24.31-15.44,2.85-.58,5.74-.87,8.65-.87,17.76,0,33.85,10.99,37.96,27.15,2.31,9.09,.53,18.44-5.01,26.33m-41.82-53.47c-10.4,2.12-19.26,7.75-24.93,15.84-5.68,8.09-7.5,17.68-5.14,27,4.21,16.58,20.71,27.85,38.93,27.85,2.93,0,5.9-.29,8.87-.9,10.4-2.12,19.26-7.75,24.94-15.84,5.68-8.09,7.5-17.68,5.13-27-4.89-19.24-26.33-31.33-47.8-26.95m38.56,50.31c-4.6,7.11-12,12.19-20.86,14.31-18.29,4.37-37.13-5.41-42-21.8-2.36-7.94-1.13-16.23,3.46-23.33,4.6-7.11,12-12.19,20.86-14.31,8.86-2.12,18.1-1.01,26.04,3.1,7.93,4.12,13.6,10.76,15.96,18.7,2.36,7.94,1.13,16.23-3.46,23.33m-12-42.8c-8.16-4.24-17.68-5.37-26.79-3.19-9.12,2.18-16.74,7.4-21.47,14.72-4.73,7.32-5.99,15.84-3.56,24.01,4.21,14.14,18.52,23.5,34.13,23.5,3,0,6.05-.35,9.09-1.07,9.11-2.18,16.74-7.4,21.46-14.72,4.73-7.32,5.99-15.84,3.56-24.01-2.43-8.17-8.26-15-16.43-19.24m8.74,39.64c-3.65,6.33-9.84,11.01-17.41,13.17-7.57,2.16-15.64,1.55-22.7-1.72-7.06-3.27-12.28-8.81-14.69-15.6-2.41-6.79-1.73-14.01,1.92-20.34,3.65-6.33,9.83-11.01,17.41-13.17,2.93-.84,5.96-1.26,9.01-1.26,12.62,0,24.36,7.25,28.38,18.58,2.41,6.79,1.73,14.01-1.92,20.34m-12.31-36.74c-7.3-3.38-15.63-4.01-23.46-1.78-7.83,2.23-14.22,7.07-17.99,13.61-3.77,6.54-4.48,14.01-1.99,21.02,2.49,7.02,7.88,12.74,15.18,16.12,4.42,2.04,9.23,3.1,14.09,3.09,3.14,0,6.29-.44,9.37-1.31,7.83-2.23,14.22-7.07,17.99-13.61s4.48-14.01,1.99-21.02c-2.49-7.02-7.88-12.74-15.18-16.12m-4.92,45.61c-6.29,2.21-13.16,2.08-19.36-.35-6.19-2.43-10.96-6.88-13.41-12.52-2.46-5.64-2.32-11.8,.39-17.35s7.67-9.82,13.97-12.02c12.99-4.55,27.7,1.22,32.78,12.86,5.08,11.65-1.36,24.82-14.35,29.38m-18.79-43.07c-6.54,2.29-11.7,6.73-14.52,12.5s-2.96,12.17-.4,18.04c2.56,5.86,7.51,10.48,13.94,13.01,3.36,1.32,6.93,1.99,10.54,1.99,3.24,0,6.48-.54,9.58-1.63,6.54-2.29,11.7-6.73,14.52-12.5s2.96-12.17,.4-18.04c-5.28-12.1-20.57-18.1-34.07-13.37m18.96,38.78c-10.35,4.64-22.99,.86-28.17-8.42-5.17-9.28-.96-20.6,9.4-25.24,2.94-1.31,6.13-1.99,9.35-1.98,7.71,0,15.14,3.81,18.81,10.4,5.17,9.28,.96,20.6-9.4,25.24m-19.21-34.46c-10.85,4.86-15.26,16.72-9.84,26.44,3.85,6.9,11.63,10.9,19.71,10.9,3.3,0,6.65-.67,9.79-2.08,5.25-2.35,9.17-6.4,11.03-11.39,1.86-4.99,1.44-10.34-1.19-15.04-5.42-9.72-18.65-13.68-29.5-8.82m26.48,20.46c-.84,3.99-3.37,7.44-7.11,9.72-3.74,2.28-8.25,3.13-12.7,2.37-4.45-.76-8.3-3.02-10.85-6.37-5.26-6.92-3.26-16.39,4.47-21.1,2.85-1.74,6.13-2.64,9.51-2.64,1.06,0,2.13,.09,3.19,.27,4.45,.76,8.3,3.02,10.85,6.37,2.55,3.35,3.49,7.4,2.64,11.38m-13.31-18.63c-4.71-.8-9.48,.09-13.44,2.51-8.18,4.99-10.3,15.01-4.73,22.34,2.7,3.55,6.78,5.95,11.49,6.75,1.13,.19,2.26,.29,3.38,.29,3.57,0,7.05-.96,10.06-2.79,3.96-2.42,6.63-6.07,7.53-10.29,.89-4.22-.1-8.5-2.8-12.05-2.7-3.55-6.78-5.95-11.49-6.75m6.33,24.1c-5.11,4.78-13.61,4.94-18.94,.36-2.58-2.22-4.05-5.21-4.13-8.41-.08-3.21,1.24-6.25,3.72-8.56,5.11-4.78,13.61-4.95,18.94-.36,2.58,2.22,4.05,5.21,4.13,8.41,.08,3.21-1.24,6.25-3.72,8.56m-20.07-17.23c-2.66,2.49-4.08,5.76-3.99,9.2,.08,3.45,1.66,6.65,4.43,9.04,2.78,2.39,6.37,3.58,9.95,3.58,3.79,0,7.57-1.33,10.4-3.97,2.66-2.49,4.08-5.76,3.99-9.2-.08-3.45-1.66-6.65-4.43-9.04-5.73-4.92-14.86-4.74-20.35,.39" fill="url(#Gradiente_sem_nome)" fill-rule="evenodd" isolation="isolate" opacity=".15"/></g></svg>